<svg xmlns="http://www.w3.org/2000/svg" viewBox="0 0 2500 2500" width="2500" height="2500"><g transform="translate(843.0 2329.0) rotate(0.0 77.0 16.5) scale(0.5849752525079864 0.5930132259919494)"><svg width="263.259" height="55.648" viewBox="0 0 263.259 55.648"><ellipse cx="131.63" cy="27.824" fill="#232323" rx="131.63" ry="27.824"/></svg></g><g transform="translate(247.0 472.0) rotate(0.0 305.0 319.0) scale(1.0003607858571943 1.0002508466072997)"><svg width="609.78" height="637.84" viewBox="0 0 609.78 637.84"><rect fill="#fff" height="450.87" rx="25" width="450.87" x="155.91" y="3"/><g fill="#232323"><path d="M581.78 456.87H180.91a28 28 0 0 1-28-28V28a28 28 0 0 1 28-28h400.87a28 28 0 0 1 28 28v400.87a28 28 0 0 1-28 28zM180.91 6a22 22 0 0 0-22 22v400.87a22 22 0 0 0 22 22h400.87a22 22 0 0 0 22-22V28a22 22 0 0 0-22-22z"/><path d="M351.76 624.69a3 3 0 0 1-3-3v-73.58h-23.29a3 3 0 0 1-3-3v-91.24a3 3 0 0 1 6 0v88.24h23.29a3 3 0 0 1 3 3v76.58a3 3 0 0 1-3 3zM103.09 330.68H16.15a3 3 0 1 1 0-6h83.94v-51.6a3 3 0 0 1 3-3h52.82a3 3 0 1 1 0 6h-49.82v51.6a3 3 0 0 1-3 3zm52.82-210.12H60.63a3 3 0 1 1 0-6h95.28a3 3 0 1 1 0 6z"/><circle cx="351.76" cy="621.69" r="16.15"/><circle cx="16.15" cy="327.68" r="16.15"/><circle cx="60.63" cy="117.56" r="16.15"/></g></svg></g><g transform="translate(1645.0 160.0) rotate(0.0 306.0 857.5) scale(1.0018990242944141 1.0021269633507854)"><svg width="610.84" height="1711.36" viewBox="0 0 610.84 1711.36"><rect fill="#fff" height="330.65" rx="25" width="330.65" x="140.81" y="871.12"/><path d="M446.46 1204.77H165.81a28 28 0 0 1-28-28V896.12a28 28 0 0 1 28-28h280.65a28 28 0 0 1 28 28v280.65a28 28 0 0 1-28 28zM165.81 874.12a22 22 0 0 0-22 22v280.65a22 22 0 0 0 22 22h280.65a22 22 0 0 0 22-22V896.12a22 22 0 0 0-22-22z" fill="#232323"/><rect fill="#fff" height="258.49" rx="25" width="258.49" x="283.97" y="1449.87"/><g fill="#232323"><path d="M517.46 1711.36H309a28 28 0 0 1-28-28v-208.49a28 28 0 0 1 28-28h208.46a28 28 0 0 1 28 28v208.49a28 28 0 0 1-28 28zM309 1452.87a22 22 0 0 0-22 22v208.49a22 22 0 0 0 22 22h208.46a22 22 0 0 0 22-22v-208.49a22 22 0 0 0-22-22zm-2.86-578.75a3 3 0 0 1-3-3V728.56h-84.41a3 3 0 0 1-3-3V535.15a3 3 0 0 1 6 0v187.41h84.41a3 3 0 0 1 3 3v145.56a3 3 0 0 1-3 3zm231.91 126.54h-66.59a3 3 0 1 1 0-6h63.59v-30.09a3 3 0 0 1 3-3h56.07a3 3 0 0 1 0 6h-53.07v30.09a3 3 0 0 1-3 3zm-5.26 101.88h-61.33a3 3 0 0 1 0-6h61.33a3 3 0 0 1 0 6zM71.39 1095H16.72a3 3 0 0 1 0-6h51.67v-24a3 3 0 0 1 3-3h69.42a3 3 0 0 1 0 6H74.39v24a3 3 0 0 1-3 3z"/><circle cx="16.72" cy="1091.99" r="16.72"/><circle cx="532.79" cy="1099.54" r="16.72"/><circle cx="594.12" cy="964.57" r="16.72"/><path d="M366.06 465.36H332a3 3 0 1 1 0-6h31.1v-30.84a3 3 0 0 1 3-3H494a3 3 0 0 1 0 6H369.06v30.84a3 3 0 0 1-3 3zm-207.91-338.5a3 3 0 0 1-3-3V52.6a3 3 0 1 1 6 0v71.26a3 3 0 0 1-3 3zm68.71 0a3 3 0 0 1-3-3V68a3 3 0 0 1 3-3H263V16.72a3 3 0 1 1 6 0V68a3 3 0 0 1-3 3h-36.14v52.86a3 3 0 0 1-3 3zM373 618.54h-95.39a3 3 0 0 1-3-3v-80a3 3 0 0 1 6 0v77H373a3 3 0 1 1 0 6z"/><circle cx="372.96" cy="615.54" r="16.72"/><circle cx="494" cy="428.52" r="16.72"/><circle cx="265.98" cy="16.72" r="16.72"/><circle cx="158.15" cy="52.6" r="16.72"/><path d="M413 1450.79a3 3 0 0 1-3-3v-115.38h-43.48a3 3 0 0 1-3-3v-127.64a3 3 0 0 1 6 0v124.64H413a3 3 0 0 1 3 3v118.38a3 3 0 0 1-3 3z"/></g><rect fill="#d9c6f4" height="411.29" rx="27" width="335.14" x="6.82" y="123.86"/></svg></g><g transform="translate(664.0 254.0) rotate(0.0 178.5 140.0) scale(1.0012340139107023 1.0023985966419648)"><svg width="356.56" height="279.33" viewBox="0 0 356.56 279.33"><rect fill="#fff" height="273.33" rx="27" width="350.56" x="3" y="3"/><path d="M326.56 279.33H30a30 30 0 0 1-30-30V30A30 30 0 0 1 30 0h296.56a30 30 0 0 1 30 30v219.33a30 30 0 0 1-30 30zM30 6A24 24 0 0 0 6 30v219.33a24 24 0 0 0 24 24h296.56a24 24 0 0 0 24-24V30a24 24 0 0 0-24-24z" fill="#232323"/></svg></g><g transform="translate(1956.0 1087.0) rotate(-14.285663965950842 60.5 60.5) scale(0.45044541978907243 0.45053934399982126)"><svg width="268.623" height="268.567" viewBox="0 0 268.623 268.567"><path d="m242.881 57.205-33.169 11.568a99.278 99.278 0 0 0-21.467-18.536l6.653-34.506a4.98 4.98 0 0 0-3.271-5.896L162.72.253a4.98 4.98 0 0 0-6.148 2.773L141.29 34.671a99.25 99.25 0 0 0-28.286 2.042L93.303 7.624a4.98 4.98 0 0 0-6.483-1.852l-27.218 13.66a4.978 4.978 0 0 0-2.385 6.306l11.571 33.167a99.248 99.248 0 0 0-18.54 21.463l-34.513-6.652a4.982 4.982 0 0 0-5.898 3.27L.255 105.891a4.976 4.976 0 0 0 2.773 6.146l31.653 15.279c-.677 9.476.011 19 2.043 28.281l-29.1 19.689a4.978 4.978 0 0 0-1.853 6.482l13.664 27.211a4.977 4.977 0 0 0 6.307 2.385l33.175-11.569a99.237 99.237 0 0 0 21.468 18.537l-6.653 34.504a4.98 4.98 0 0 0 3.27 5.895l28.907 9.582a4.978 4.978 0 0 0 6.148-2.773l15.282-31.645a99.25 99.25 0 0 0 28.286-2.042l19.699 29.095a4.98 4.98 0 0 0 6.483 1.853l27.212-13.661a4.98 4.98 0 0 0 2.385-6.307l-11.571-33.167a99.243 99.243 0 0 0 18.54-21.462l34.513 6.652a4.982 4.982 0 0 0 5.898-3.271l9.584-28.9a4.978 4.978 0 0 0-2.774-6.147l-31.653-15.279a99.175 99.175 0 0 0-2.043-28.28l29.098-19.689a4.98 4.98 0 0 0 1.854-6.482l-13.665-27.212a4.983 4.983 0 0 0-6.304-2.391z" fill="#d9c6f4"/><g fill="#D9C6F4"><ellipse cx="135.333" cy="134.284" rx="34.666" ry="34.658"/><path d="M135.364 202.527h-.088c-18.233-.008-35.371-7.114-48.258-20.008-12.887-12.895-19.979-30.036-19.972-48.264s7.115-35.363 20.014-48.247c12.89-12.876 30.022-19.966 48.242-19.966h.031c18.29.007 35.428 7.113 48.314 20.008 12.887 12.895 19.98 30.035 19.973 48.263-.016 37.618-30.635 68.211-68.256 68.214zm-.029-3 .001-3h.026c34.317 0 62.243-27.904 62.258-62.217.007-16.625-6.463-32.259-18.217-44.02s-27.385-18.242-44.015-18.249h-.029c-16.677 0-32.302 6.467-44.06 18.211-11.764 11.751-18.247 27.378-18.254 44.004-.007 16.625 6.462 32.259 18.216 44.02s27.385 18.242 44.015 18.25z"/></g></svg></g><g transform="translate(1825.0 1147.0) rotate(-29.16494157114836 83.5 83.5) scale(0.6216891330973149 0.6218187640328111)"><svg width="268.623" height="268.567" viewBox="0 0 268.623 268.567"><path d="m242.881 57.205-33.169 11.568a99.278 99.278 0 0 0-21.467-18.536l6.653-34.506a4.98 4.98 0 0 0-3.271-5.896L162.72.253a4.98 4.98 0 0 0-6.148 2.773L141.29 34.671a99.25 99.25 0 0 0-28.286 2.042L93.303 7.624a4.98 4.98 0 0 0-6.483-1.852l-27.218 13.66a4.978 4.978 0 0 0-2.385 6.306l11.571 33.167a99.248 99.248 0 0 0-18.54 21.463l-34.513-6.652a4.982 4.982 0 0 0-5.898 3.27L.255 105.891a4.976 4.976 0 0 0 2.773 6.146l31.653 15.279c-.677 9.476.011 19 2.043 28.281l-29.1 19.689a4.978 4.978 0 0 0-1.853 6.482l13.664 27.211a4.977 4.977 0 0 0 6.307 2.385l33.175-11.569a99.237 99.237 0 0 0 21.468 18.537l-6.653 34.504a4.98 4.98 0 0 0 3.27 5.895l28.907 9.582a4.978 4.978 0 0 0 6.148-2.773l15.282-31.645a99.25 99.25 0 0 0 28.286-2.042l19.699 29.095a4.98 4.98 0 0 0 6.483 1.853l27.212-13.661a4.98 4.98 0 0 0 2.385-6.307l-11.571-33.167a99.243 99.243 0 0 0 18.54-21.462l34.513 6.652a4.982 4.982 0 0 0 5.898-3.271l9.584-28.9a4.978 4.978 0 0 0-2.774-6.147l-31.653-15.279a99.175 99.175 0 0 0-2.043-28.28l29.098-19.689a4.98 4.98 0 0 0 1.854-6.482l-13.665-27.212a4.983 4.983 0 0 0-6.304-2.391z" fill="#d9c6f4"/><g fill="#D9C6F4"><ellipse cx="135.333" cy="134.284" rx="34.666" ry="34.658"/><path d="M135.364 202.527h-.088c-18.233-.008-35.371-7.114-48.258-20.008-12.887-12.895-19.979-30.036-19.972-48.264s7.115-35.363 20.014-48.247c12.89-12.876 30.022-19.966 48.242-19.966h.031c18.29.007 35.428 7.113 48.314 20.008 12.887 12.895 19.98 30.035 19.973 48.263-.016 37.618-30.635 68.211-68.256 68.214zm-.029-3 .001-3h.026c34.317 0 62.243-27.904 62.258-62.217.007-16.625-6.463-32.259-18.217-44.02s-27.385-18.242-44.015-18.249h-.029c-16.677 0-32.302 6.467-44.06 18.211-11.764 11.751-18.247 27.378-18.254 44.004-.007 16.625 6.462 32.259 18.216 44.02s27.385 18.242 44.015 18.25z"/></g></svg></g><g transform="translate(1654.0 284.0) rotate(0.0 165.5 203.0) scale(0.9876469535119652 0.987138029127866)"><svg width="335.14" height="411.29" viewBox="0 0 335.14 411.29"><rect fill="#d9c6f4" height="411.29" rx="27" width="335.14"/><g fill="#fff"><path d="M145 206.63a3 3 0 0 1-3-3V81.3a18 18 0 0 0-36 0v122.33a3 3 0 0 1-6 0V81.3a24 24 0 0 1 48 0v122.33a3 3 0 0 1-3 3z"/><path d="M187 206.63a3 3 0 0 1-3-3V60.87a18 18 0 0 0-36 0v142.76a3 3 0 0 1-6 0V60.87a24 24 0 0 1 48 0v142.76a3 3 0 0 1-3 3z"/><path d="M229 206.63a3 3 0 0 1-3-3V81.3a18 18 0 1 0-36 0v122.33a3 3 0 0 1-6 0V81.3a24 24 0 1 1 48 0v122.33a3 3 0 0 1-3 3z"/><path d="M271 206.63a3 3 0 0 1-3-3v-72.32a18 18 0 1 0-36 0v72.32a3 3 0 0 1-6 0v-72.32a24 24 0 1 1 48 0v72.32a3 3 0 0 1-3 3zM70.36 300.09a3 3 0 0 1-2.91-2.28L41.92 194.44a24 24 0 0 1 46.5-11.79L106 251.73a3 3 0 0 1-5.81 1.48l-17.58-69.09A18 18 0 0 0 47.74 193l25.53 103.37a3 3 0 0 1-2.19 3.63 3 3 0 0 1-.72.09z"/><path d="M172.33 374.4c-56 0-93.21-27.21-104.89-76.62a3 3 0 1 1 5.84-1.38c11 46.43 46.15 72 99.05 72 26.85 0 51-6.94 67.95-19.54 18.1-13.44 27.67-32.8 27.67-56v-89.23a3 3 0 0 1 6 0v89.26c0 25.15-10.41 46.17-30.1 60.79-17.99 13.32-43.39 20.72-71.52 20.72zm-69.27-118.93a3 3 0 0 1-3-3v-48.84a3 3 0 0 1 6 0v48.84a3 3 0 0 1-3 3z"/></g></svg></g><g transform="translate(518.0 290.0) rotate(0.0 684.5 1031.5) scale(1.0063290673997898 1.0054341204279065)"><svg width="1360.39" height="2051.85" viewBox="0 0 1360.39 2051.85"><path d="M828.77 188.79c.14 11.81-6.83 23.65-19.46 29.82-32.89 16.06-77.8 1.71-77.8 1.71s-10.41 43.36-6.41 73.82c0 0-63.29 28.87-154.81-8.4 0 0 27.85-38.39 63.77-122.85-6.92-31.18-16.39-49.48-18.3-78.09-2.37-35.55 14.47-59.22 50.24-73.37 32.68-12.91 85.7-12.57 108.13 12.18 20.29 22.4 15.29 64.74 22.09 76.66 5.59 9.79 13.44 8.1 13.33 14-.09 5-6 10.78-9.29 13.24.2 34.2 28.19 33.71 28.51 61.28z" fill="#fff"/><path d="M663.14 307.78c-24.45 0-56.88-4.15-94-19.26a3 3 0 0 1-1.3-4.54c.28-.38 27.9-38.89 63.07-121.38-2.53-11.18-5.35-20.62-8.08-29.75C618.29 117.6 614 103.2 612.77 85c-2.44-36.55 14.61-61.52 52.14-76.36 35.46-14 88.69-12.15 111.44 13 13.71 15.13 16.42 38.91 18.4 56.28 1 9.23 2 17.2 4.08 20.91a18.6 18.6 0 0 0 7.9 7.46c2.77 1.6 5.9 3.42 5.82 8-.1 5.64-5.4 11.45-9.27 14.63.49 15.89 7.33 23.21 14.56 30.95 6.77 7.24 13.77 14.72 13.93 28.9.16 13.63-7.94 26.11-21.15 32.56-17.62 8.6-38.47 8.64-52.85 7.16a155.84 155.84 0 0 1-24-4.39c-2.23 10.35-8.94 44.72-5.66 69.66a3 3 0 0 1-1.73 3.13c-.67.3-16.6 7.45-44.05 10-5.69.54-12.11.89-19.19.89zm-88.25-23.43c45.17 17.69 82.91 18.82 106.85 16.58 21-2 35.12-6.78 40.12-8.7-3.27-30.44 6.31-70.86 6.73-72.61a3 3 0 0 1 3.83-2.16c.44.14 44.18 13.78 75.57-1.54 11.1-5.43 17.92-15.81 17.78-27.1-.14-11.85-5.78-17.89-12.31-24.88-7.54-8.07-16.09-17.21-16.2-36.46a3 3 0 0 1 1.22-2.43c3.31-2.45 8-7.44 8.07-10.89 0-.92-.19-1.2-2.82-2.72a24.39 24.39 0 0 1-10.11-9.68c-2.73-4.76-3.62-12.92-4.83-23.21-2-17.48-4.47-39.23-16.89-52.93C751.14 2.7 700 1.22 667.12 14.22c-17.6 7-30.06 16-38.07 27.57s-11.44 25.68-10.3 42.81c1.18 17.53 5.19 31 9.85 46.53 2.84 9.49 5.77 19.3 8.39 31.11a3 3 0 0 1-.17 1.83c-29.97 70.47-54.67 109.44-61.93 120.28z" fill="#232323"/><path d="M749.31 98.36c5.08-1.73 17.37-5.61 28.34-13a3.27 3.27 0 0 1 4.6.95c2.58 4 5.61 11.3-2.49 15.36-10 5-27 3.67-31.15-.47a1.74 1.74 0 0 1 .7-2.84zm40.47 60.34a14.38 14.38 0 0 1-5.38 3.09 19.32 19.32 0 0 1-6 .92 21.32 21.32 0 0 1-11.68-3.4 21.85 21.85 0 0 1-4.56-4.18 19.89 19.89 0 0 1-3.09-5.33 17.32 17.32 0 0 1-.4-12 2.25 2.25 0 0 1 4.36.82v.11a17.37 17.37 0 0 0 1.94 8.47 17.13 17.13 0 0 0 2.45 3.51 16.09 16.09 0 0 0 3.2 2.8 18.38 18.38 0 0 0 8.06 2.8 16 16 0 0 0 8.5-1.2l.12-.06a2.24 2.24 0 0 1 2.49 3.66z" fill="#232323"/><circle cx="654.19" cy="131.71" fill="#fff" r="40.81"/><path d="M654.19 175.52A43.81 43.81 0 1 1 698 131.71a43.86 43.86 0 0 1-43.81 43.81zm0-81.62A37.81 37.81 0 1 0 692 131.71a37.85 37.85 0 0 0-37.81-37.81z" fill="#232323"/><circle cx="654.19" cy="131.71" fill="#232323" r="27.05"/><path d="M681.59 104.46a3 3 0 0 1-3-3c0-21.14 2.28-42.94 18.85-59.09 17.61-17.16 53-24.53 77-21.74a3 3 0 1 1-.69 6c-22.14-2.57-56 4.37-72.15 20.08-15.73 15.33-17 36.32-17 54.79a3 3 0 0 1-3.01 2.96zm49.92 118.86a3.3 3.3 0 0 1-.82-.11c-34.69-9.81-53.43-29.35-55.69-58.1a3 3 0 1 1 6-.47c2.1 26.35 18.9 43.62 51.37 52.79a3 3 0 0 1-.81 5.89zM621.75 304a2.74 2.74 0 0 1-.74-.1 3 3 0 0 1-2.16-3.65c3.59-14 17.49-49.75 24.82-60.2a3 3 0 0 1 4.91 3.45c-6.25 8.9-20.21 43.77-23.92 58.24a3 3 0 0 1-2.91 2.26z" fill="#232323"/><circle cx="646.13" cy="241.75" fill="#fff" r="11.87"/><path d="M646.13 256.62A14.87 14.87 0 1 1 661 241.75a14.89 14.89 0 0 1-14.87 14.87zm0-23.74a8.87 8.87 0 1 0 8.87 8.87 8.88 8.88 0 0 0-8.87-8.87zM466.49 952.57c-47.74-1.74-81.61 12.51-85.41 32.29s41.64 92.24 567.43-61.15c0 0-370.58 32.91-482.02 28.86zM376.56 523c-48.93-27.67-85.36-28.44-97.78-15.29-11.14 11.8-16.21 92.67 235.18 130.06.04.01-36.44-57.67-137.4-114.77z" fill="#232323"/><path d="M357.86 514.46a351.89 351.89 0 0 0-26.37 37.39c-54.74 90.7-41.46 162.65 23.75 181.8 51.28 15.07 99.81-5.11 99.81-5.11S501.4 669 514 637.78c45-86.67 64.32-315.8 33.13-333-32.22-17.7-189.27 209.68-189.27 209.68z" fill="#fff"/><path d="M395.75 742.29a146.71 146.71 0 0 1-41.36-5.76c-26.29-7.72-44.95-24-53.95-47.17-14-36-3.9-85.41 28.48-139.06a354.14 354.14 0 0 1 26.53-37.64c1.77-2.54 40.54-58.44 82.61-111.54 25.21-31.82 46.67-56.44 63.79-73.18 23-22.47 37.81-30.66 46.68-25.77 18.88 10.4 19.37 80.87 13.54 143.34S541.26 591.59 516.68 639c-12.64 31.27-57.36 88.91-59.26 91.35a3 3 0 0 1-1.22.93c-1.46.64-26.94 11.01-60.45 11.01zm147.09-435.5c-8.61 0-32.9 13.27-100.08 98-42.73 53.93-82 110.75-82.43 111.32l-.12.17a346.86 346.86 0 0 0-26.15 37.07c-31.4 52-41.35 99.54-28 133.78 8.3 21.34 25.61 36.42 50.05 43.6 46.29 13.59 90.94-2.37 97.1-4.73 5-6.54 46.43-60.67 58-89.39l.12-.26c24.22-46.66 39-129.49 44.81-191.45 6.89-73.78 2.58-130.33-10.46-137.52a5.7 5.7 0 0 0-2.84-.59z" fill="#232323"/><path d="M301.37 682.91c17.83 56.4 77.91 112.83 135.51 147.43 137.15 82.4 221.51 84.07 255.44 91.3s31.35-6.06 16.29-15.09c-11-6.61-23-12.89-24-13.41.94.49 12.59 6.27 47.25 12.25 54.45 9.39 27.9-15.67 27.9-15.67 54.48 7.52 16.35-18.83 16.35-18.83 29.11 3.78 26.64-6 6.29-21.23s-78.21-47.13-78.21-47.13c35.65-8.83 10-21.17-14.54-28.26S611.48 747 561.28 702.1c-45.62-40.76-79.12-67.54-94.74-79.67" fill="#fff"/><g fill="#232323"><path d="M708.44 926.7a83 83 0 0 1-16.75-2.13c-5.15-1.09-11.63-2.08-19.14-3.23-42.19-6.44-120.72-18.44-237.22-88.42-30.34-18.23-59.92-41.68-83.29-66-26.61-27.74-45.12-56.46-53.53-83.06a3 3 0 1 1 5.72-1.81c8.13 25.73 26.16 53.64 52.14 80.72 23 24 52.16 47.08 82.05 65 115.49 69.38 193.26 81.26 235 87.64 7.6 1.16 14.16 2.16 19.48 3.3 17.52 3.73 22.75 1.28 23.21.13s-1.79-5.35-9.08-9.72c-11.1-6.67-23.32-13-23.86-13.31a3 3 0 1 1 2.76-5.32c.47.24 11.83 6 46.38 11.95 26.58 4.59 30.22.25 30.68-.66 1.06-2.12-2.43-7.1-5.36-9.87a3 3 0 0 1 2.48-5.15c24 3.32 25.86-.66 25.88-.7.72-1.85-5-8.14-11.65-12.7a3 3 0 0 1 2.1-5.44c16.62 2.17 18.29-.75 18.31-.78s.7-3.89-14.21-15.07c-20.06-15-77.28-46.59-77.86-46.9a3 3 0 0 1-1.52-3 3 3 0 0 1 2.25-2.52c15.07-3.74 15.31-7.26 15.31-7.41 0-2.57-7.89-8.69-30-15.06-21.31-6.15-76.6-25.55-129.49-72.81-45.41-40.57-78.75-67.25-94.59-79.54a3 3 0 1 1 3.68-4.74c15.9 12.34 49.37 39.12 94.91 79.8 52 46.44 106.24 65.49 127.16 71.53 22.9 6.6 34.44 13.65 34.3 20.93-.09 4.53-4.2 8.12-12.84 11.08 15.62 8.72 55.66 31.41 72.26 43.86 13.34 10 18.32 16.82 16.16 22.13-1.54 3.79-6.23 5.52-14.84 5.3 4.15 4 7.83 9.14 6.12 13.54-2 5.08-9.75 6.79-24.9 5.34 2 3.24 3.46 7.29 1.67 10.88-3.23 6.46-15 7.7-37.06 3.9-8.07-1.4-14.92-2.78-20.69-4.09 8.82 5.42 13.07 11.82 11.11 16.78-1.43 3.74-5.89 5.63-13.24 5.63z"/><path d="M650.84 812.23a138.81 138.81 0 0 1-21.84-1.66 3 3 0 1 1 .93-5.92c23.08 3.64 46.11.61 73.6-5.06a3 3 0 0 1 1.22 5.88c-19.6 4.04-37.03 6.76-53.91 6.76zm125.23 61.66a2.74 2.74 0 0 1-.56-.06 288.87 288.87 0 0 1-77-26.86 3 3 0 1 1 2.91-5.25 282.71 282.71 0 0 0 75.24 26.22 3 3 0 0 1-.56 5.95zm-16.35 18.83a3.15 3.15 0 0 1-.52-.05c-42.47-7.41-79.35-22.2-79.72-22.35a3 3 0 1 1 2.25-5.56 438.6 438.6 0 0 0 78.5 22 3 3 0 0 1-.51 6zm-75.15 3.42a2.91 2.91 0 0 1-1.08-.2c-7.36-2.85-13.8-5.75-13.87-5.77a3 3 0 0 1 2.46-5.48c.07 0 6.37 2.86 13.58 5.65a3 3 0 0 1-1.09 5.8zm-76.06-48.79a3.06 3.06 0 0 1-1.46-.38c-.58-.33-58.76-32.88-116.18-72.21-77.8-53.28-117.25-93.18-117.25-118.6 0-59.2 40.93-107 42.67-109a3 3 0 1 1 4.53 3.93c-.41.48-41.2 48.18-41.2 105.09 0 16 19.89 48.76 114.61 113.63C551.43 809 609.4 841.4 610 841.73a3 3 0 0 1-1.46 5.62z"/></g><circle cx="376.62" cy="656.16" fill="#fff" r="11.87"/><path d="M376.62 671a14.87 14.87 0 1 1 14.87-14.87A14.88 14.88 0 0 1 376.62 671zm0-23.74a8.87 8.87 0 1 0 8.87 8.87 8.88 8.88 0 0 0-8.87-8.84z" fill="#232323"/><circle cx="608.51" cy="844.35" fill="#fff" r="11.87"/><path d="M608.51 859.21a14.87 14.87 0 1 1 14.87-14.86 14.88 14.88 0 0 1-14.87 14.86zm0-23.73a8.87 8.87 0 1 0 8.87 8.87 8.87 8.87 0 0 0-8.87-8.87z" fill="#232323"/><path d="M516.63 638c-19.84-34-184.79-172.77-235.7-129.31 35.39-69.91 233.24-258 289.36-222.92 26.98 134.8 6.97 264.42-53.66 352.23z" fill="#fff"/><path d="M516.63 641h-.12a3 3 0 0 1-2.47-1.49c-15.22-26.1-127-123.49-195.1-135.06-15.73-2.67-27.86-.48-36.06 6.52a3 3 0 0 1-4.63-3.64c14.89-29.41 58.94-80.47 109.61-127 57.63-53 111-89.05 146.51-98.93 15.85-4.41 28.47-3.78 37.51 1.88a3 3 0 0 1 1.35 2c13.29 66.4 15.38 133.76 6 194.8s-30.09 116.1-60.13 159.59a3 3 0 0 1-2.47 1.33zM306.77 497.32A79.06 79.06 0 0 1 320 498.5c40.85 6.94 92.46 42.33 119.59 62.8 33.66 25.41 65.39 54.84 77.13 71.26 28.18-42.16 47.75-95.13 56.68-153.51 9.16-59.95 7.18-126.1-5.74-191.4-7.5-4.12-18.14-4.3-31.63-.55-34.6 9.63-87.11 45.19-144.06 97.56-45 41.36-84.61 86.11-102.86 115.71a48.07 48.07 0 0 1 17.66-3.05zm-53.83 1111.59c-27.34-70.32-77.34-202.91-131.26-152.77-54.09 50.25 79.29 176.15 194.71 255.38 0 0-49.56-66.88-63.45-102.61z" fill="#232323"/><path d="M323.07 1710.08c-21.74 14.06-99.09 60.46-108 64.1-4.84 2-74.75-31.16-71.69-113.43 34.74-29.65 82.48-71.92 118.94-109.15z" fill="#fff"/><path d="M214.65 1777.22c-5.21 0-16-6.14-22.59-10.77-16.29-11.36-53.92-44.42-51.64-105.81a3 3 0 0 1 1.05-2.17c27.35-23.34 79.14-68.52 118.75-109a3 3 0 0 1 2.75-.84 3 3 0 0 1 2.19 1.87l60.71 158.5a3 3 0 0 1-1.17 3.59c-22.06 14.26-99.46 60.67-108.45 64.36a4.29 4.29 0 0 1-1.6.27zm-68.27-115c-1.15 41.27 16.65 68.76 31.88 84.6 15.83 16.46 32.54 24.14 36.07 24.48 9.82-4.38 81.52-47.35 105.06-62.37L261.23 1557c-38.82 39.27-87.94 82.18-114.85 105.17z" fill="#232323"/><path d="M146.22 1658.19s-88.5 72.4-144.32 109.63c0 0 142.81 154.33 197.68 202.43 29.78 26.1 53.56 29.42 67.54 28.5a.49.49 0 0 1 .06-.12 2.57 2.57 0 0 0 .12-.27c2.14-5 22.31-55.24-1.51-131.8-3.72-11.93-17.36-48.62-42.54-81.75-17.23-22.67-32-41-45.41-54.64-30.3-30.76-9.84-48.75-31.62-71.98z" fill="#fff"/><path d="M147.91 1656.41c23.4 24.56.26 43.14 39.78 79.65 12.46 11.5 34.94 39.29 51.41 69.16 26.3 47 42.81 101.11 37.06 155.26a171.46 171.46 0 0 1-3.9 22.37c-75.55-14.41-109.5-83.84-123.7-120.5-12.24-31.61-30.93-26.7-42.72-50.75-9.85-20.08-.55-34.9-17-56.7A58.56 58.56 0 0 0 51 1732.41s49.5-32.41 96.91-76z" fill="#232323"/><path d="M272.25 1985.86a2.84 2.84 0 0 1-.72-.09c-33.57-6.44-62.65-24.24-86.45-52.9-15.48-18.65-28.71-42-39.33-69.42-6.39-16.51-14.32-22.34-22.72-28.52-7-5.15-14.24-10.47-19.9-22-4.43-9-5.19-17-5.93-24.78-1-10.08-1.85-19.6-10.8-31.43a51.05 51.05 0 0 0-36.22-19.87 3 3 0 0 1 .51-6 57.11 57.11 0 0 1 40.49 22.22c10 13.2 11 24 12 34.49.71 7.53 1.39 14.65 5.34 22.71 5 10.21 11.35 14.87 18.07 19.81 8.72 6.41 17.74 13 24.76 31.18 10.38 26.81 23.28 49.6 38.35 67.76 22.92 27.6 50.88 44.72 83.11 50.87a3 3 0 0 1 1.36 5.25 3 3 0 0 1-1.92.72z" fill="#232323"/><path d="M68.65 1806.55a24.86 24.86 0 0 1-6.74-1c-6.57-1.84-13.33-6.1-19-12-12.38-12.82-15.8-28.92-7.79-36.65 4-3.9 10.19-5 17.32-3 6.57 1.84 13.33 6.11 19 12s9.73 12.81 11.34 19.44c1.74 7.2.48 13.31-3.55 17.21a14.83 14.83 0 0 1-10.58 4zm-29.39-45.35c-5.4 5.22-1.77 18.12 7.94 28.17 5 5.15 10.77 8.85 16.33 10.41 5 1.4 9.1.87 11.54-1.49s3.11-6.43 1.89-11.47c-1.36-5.61-4.85-11.54-9.83-16.69s-10.78-8.85-16.34-10.41c-5-1.4-9.09-.87-11.53 1.48z" fill="#232323"/><path d="M263.06 2001.89c-26.26 0-49.91-15.76-65.46-29.39C143.23 1924.84 2.2 1770.39.78 1768.84a3 3 0 0 1-.76-2.38 3 3 0 0 1 1.3-2.13c98.12-66.44 142.41-107.91 142.84-108.32a3 3 0 1 1 4.12 4.36c-15 14.15-63.52 54.52-140.73 107 18.68 20.4 143.74 156.57 194 200.64 26.95 23.63 49.13 28.33 63.53 27.86 3.8-9.66 19.9-57.48-2.17-128.41-3.14-10.06-23.09-59.83-56.71-101.9a3 3 0 0 1 4.69-3.74c34.2 42.79 54.55 93.58 57.75 103.86 23.88 76.75 4 127.68 1.46 133.76a.42.42 0 0 0 0 .1c-.06.14-.12.26-.17.36l-.06.14a3 3 0 0 1-2.53 1.73c-1.45.07-2.87.12-4.28.12z" fill="#232323"/><path d="M705.52 1189.69c16.52-157 4.36-366.94 4.36-366.94s-137-3.58-141.39-23.7l-116.41 10.72s-23.62 108.43-5.87 278.29c8.62 82.38 7.15 147.23-9.31 175-16.11 27.23-88.3 55.88-137.62 80.1-129.84 69.84-176.36 115.63-176.36 115.63 37.29-25.73 79.59 15.38 102 111.83s94.78 145.14 94.78 145.14c303.44-169.36 365.54-427.96 385.82-526.07z" fill="#00676c"/><path d="M551.25 1758.72c-51.58-66.93-103.63-202.76-154.32-138.65s96.39 191.17 276.31 203.38c0 0-99.53-35.59-121.99-64.73z" fill="#232323"/><path d="M677 1810.5c-10.43 18.54-39.69 78.5-47.23 90.1 0 0-112.48 25.74-133.43-39.82 12-51.51 29.85-128.36 41.89-180z" fill="#fff"/><path d="M582 1908.58c-3.66 0-7.42-.09-11.22-.31-41.56-2.38-68.28-18.49-77.26-46.58a3.06 3.06 0 0 1-.06-1.59c6.17-26.49 13.89-59.68 21.57-92.7 7.25-31.19 14.47-62.23 20.31-87.32a3 3 0 0 1 5-1.51l138.77 129.74a3 3 0 0 1 .56 3.66c-4.54 8.08-12.59 23.88-21.11 40.61-10.76 21.14-21.89 43-26.21 49.65a3 3 0 0 1-1.85 1.29 239.23 239.23 0 0 1-48.5 5.06zm-82.51-47.94C508 1886 532 1900 571 1902.27c26.46 1.53 51.29-3.17 56.94-4.34 4.56-7.45 15.07-28.09 25.25-48.08 7.87-15.47 15.35-30.15 20.08-38.76L540 1686.5c-5.62 24.14-12.36 53.13-19.14 82.26-7.63 32.68-15.27 65.53-21.41 91.88z" fill="#232323"/><path d="M496.34 1860.78s-22.5 117.08-34.39 183.4c0 0 205.4 7.9 278.41 1.65 39.62-3.39 58.57-18.29 67.63-29a1.11 1.11 0 0 1 0-.13c0-.06-.06-.16-.11-.28-2.12-5-24.46-54.59-96.46-90.62-11.22-5.61-47.27-21.27-88.78-26.1-28.4-3.31-52.55-2-70.75-8-23.17-7.7-26.98-27.25-55.55-30.92z" fill="#fff"/><path d="M496.52 1858.29c27.52 4.26 32.65 23.89 57.34 32.88 16 5.83 61.45 2.35 94.54 11.21 52.35 13.7 103 39.37 138.17 81.22A173.65 173.65 0 0 1 800 2002c-63 44.66-126.46 21-162.87 5.73-31.41-13.14-40 4.22-65.59-4-21.38-6.85-25.21-24.74-52.46-28-25.47-3-49.67 14.23-49.67 14.23s13.74-78.34 27.11-131.67z" fill="#232323"/><path d="M722.6 2030.28c-34.62 0-64.87-12.66-85-21.09-16.41-6.87-26.15-5.18-36.46-3.4-8.6 1.49-17.49 3-29.77-.9-9.63-3.09-16-8.11-22.06-13-8-6.32-15.48-12.29-30.27-14-23.78-2.83-45.32 16.08-45.54 16.27a3 3 0 0 1-4-4.48c.95-.85 23.72-20.89 50.23-17.75 16.49 2 25 8.75 33.3 15.31 6 4.73 11.57 9.19 20.16 11.94 10.87 3.48 18.67 2.13 26.92.71 10.71-1.85 21.78-3.77 39.79 3.77 16.6 6.95 41.68 17.44 69.81 20 32.5 3 61.48-4.89 88.62-24.12a3 3 0 0 1 4.49 3.63 3 3 0 0 1-1.16 1.36c-27.19 19.24-54.25 25.75-79.06 25.75z" fill="#232323"/><path d="M515.49 2036.2c-8.2 0-15.95-1.89-21.84-5.32-6.42-3.75-10-8.91-10-14.54 0-11.17 14-19.95 31.85-20 8.28 0 16 1.87 22 5.32 6.42 3.74 10 8.9 10 14.53 0 11.18-14 20-31.85 20zm0-36.85v3c-14 0-25.88 6.43-25.86 14 0 3.41 2.49 6.74 7 9.36 5 2.91 11.67 4.51 18.82 4.51h.11c14 0 25.88-6.44 25.86-14 0-3.42-2.49-6.74-7-9.37-5-2.9-11.67-4.5-18.82-4.5h-.11z" fill="#232323"/><path d="M622.44 2051.83c-78.94 0-161.43-2.1-162.74-2.13a3 3 0 0 1-2.87-3.53c11.75-65.6 36.33-184.8 36.57-186a3 3 0 1 1 5.88 1.22c-.24 1.17-24 116.24-35.92 182.4 27.55.66 209.92 4.77 276.74-1 35.88-3.07 54.73-15.86 64.38-26.6-4.32-9.46-27.7-54.39-94.46-87.81l-2-1c-12.18-6.16-37.55-19-83.93-23.86a3 3 0 1 1 .63-6c47.48 5 73.5 18.15 86 24.48l1.94 1c71.85 36 95 85.43 97.8 91.93a1 1 0 0 1 .07.15c.07.15.12.29.16.39v.11a3 3 0 0 1-.5 3c-18.1 21.5-47.88 28.24-69.67 30.1-26.66 2.43-71.76 3.15-118.08 3.15z" fill="#232323"/><path d="M860.21 773.09 508 799.79c-3.85 24.45-3.78 49.31-5.07 74-6.25 120.12 110.44 470.09 29.22 566.59C439 1551 396.93 1620.07 396.93 1620.07c21.63-22.61 66.09-3.11 108.52 84.76 47 97.38 168.19 118.62 168.19 118.62C960.08 1400 860.21 773.09 860.21 773.09z" fill="#00676c"/><path d="M468.94 1245.71a3 3 0 0 0-4.15-.89l-27.65 17.85-.24.44c-4.16 7-12.07 14.16-22.35 21.28l53.45-34.53a3 3 0 0 0 .94-4.15z" fill="#fff"/><path d="M562.55 1281.79c-4.48-68.74-19.15-149-32.08-219.89-4-22.09-7.84-43-11.3-63.06a3 3 0 1 0-5.91 1c3.46 20.15 7.27 41 11.31 63.12 12.9 70.69 27.53 150.82 32 219.21 5.06 77.75-3.69 128.87-26.75 156.28-73.17 86.93-118.95 156.67-133.35 182.08l.47-.47a33.43 33.43 0 0 1 11-7.12c19-31.06 62.08-94.13 126.46-170.63 24.11-28.64 33.32-81.15 28.15-160.52z" fill="#fff"/><path d="M537.61 1436a3 3 0 0 1-2.48-4.7l65.4-95.26a3 3 0 0 1 5 3.39l-65.4 95.27a3 3 0 0 1-2.52 1.3z" fill="#fff"/><path d="M570.15 1852a3 3 0 0 1-2.84-4c2-5.81 6-15.24 10.23-25.23 4.64-10.93 9.45-22.22 12.4-30.63a3 3 0 1 1 5.66 2c-3 8.59-7.86 20-12.54 31-4.2 9.88-8.17 19.21-10.06 24.8a3 3 0 0 1-2.85 2.06z" fill="#232323"/><circle cx="570.16" cy="1849" fill="#fff" r="11.87"/><path d="M570.15 1863.86A14.87 14.87 0 1 1 585 1849a14.88 14.88 0 0 1-14.85 14.86zm0-23.73A8.87 8.87 0 1 0 579 1849a8.88 8.88 0 0 0-8.85-8.87zM215.8 1704a3 3 0 0 1-2-5.21c4.53-4.17 13.33-11.21 22.66-18.67 10.06-8.05 20.47-16.37 27.07-22.3a3 3 0 1 1 4 4.46c-6.73 6-17.21 14.42-27.34 22.53-9.24 7.39-18 14.37-22.34 18.39a3 3 0 0 1-2.05.8z" fill="#232323"/><circle cx="215.8" cy="1701.03" fill="#fff" r="11.87"/><path d="M215.78 1715.89a14.86 14.86 0 1 1 13.06-7.72 14.88 14.88 0 0 1-13.06 7.72zm0-23.73a8.88 8.88 0 0 0-8.52 11.35 8.77 8.77 0 0 0 4.25 5.29 8.87 8.87 0 1 0 8.52-15.55 8.76 8.76 0 0 0-4.22-1.09zm664.86-745.92L848 953.36s-53-92.6-69.78-141.92 63.54 9.19 63.54 9.19z" fill="#232323"/><path d="m559.25 298.1 16.08-20.32s55 23 134.93 8.53c2.59-.47 5.21-1 7.85-1.53 9.44-2 19.21-4.46 29.25-7.58 0 0 127.9 193.62 201.15 646.51 0 0-29 12.53-79 22.33-21.61-35.34-39.45-81.93-63.7-122.04 1.68 56 .84 86.94 1.85 129.29-47.85-2.57-112-7.9-173.36-7.09-189.79 2.51-245.8 9.2-250.82 41.8 0 0 9.16-158.53 42.68-343.78C468.57 409.89 559.25 298.1 559.25 298.1z" fill="#fff"/><path d="M383.48 991h-.32a3 3 0 0 1-2.67-3.16c.09-1.59 9.54-160.84 42.72-344.14 22-121.38 57.1-209.31 82.7-261.71 27.56-56.39 50.38-85 51-85.74L573 275.92a3 3 0 0 1 3.51-.91c.55.23 55.22 22.49 133.24 8.35 2.85-.51 5.39-1 7.77-1.51 9.62-2 19.37-4.53 29-7.52a3 3 0 0 1 3.39 1.21c.32.49 32.62 49.88 73.4 154 37.58 96 90.33 259.49 128.21 493.7a3 3 0 0 1-1.77 3.24c-.29.12-29.89 12.77-79.65 22.51a3 3 0 0 1-3.14-1.38c-10.65-17.45-20.24-37.29-30.38-58.28-8.64-17.88-17.53-36.27-27.39-53.71.66 26.17.78 46.61.89 66.46.1 16.94.2 32.95.63 51.13a3 3 0 0 1-3.16 3.07c-10.89-.59-22.58-1.31-35-2.08-42.61-2.64-90.93-5.64-138.2-5-87.55 1.16-154.09 3.23-194.27 9.58-35.71 5.64-51.25 14.24-53.63 29.68a3 3 0 0 1-2.97 2.54zM576.3 281.38 561.6 300c-.23.28-22.87 28.49-50.39 84.85-25.4 52-60.25 139.33-82.07 259.9C402 794.48 390.77 928.1 387.53 972.54c8.54-9.41 24.91-15.49 51.6-19.71 40.53-6.4 107.32-8.49 195.13-9.65 47.51-.63 95.93 2.37 138.65 5 11.15.69 21.74 1.35 31.68 1.9-.37-16.91-.46-32-.55-48-.14-22.68-.27-46.14-1.22-78a3 3 0 0 1 5.56-1.65c12.43 20.57 23.17 42.8 33.55 64.29 9.73 20.14 18.94 39.2 29 56 40.35-8.06 66.77-17.9 74.22-20.85C907.4 689.4 855 527.07 817.67 431.71c-36.13-92.25-65.44-141.1-71.61-151-9.08 2.74-18.27 5.09-27.34 7-2.43.51-5 1-7.93 1.54a300.26 300.26 0 0 1-53.6 4.89c-43.35.01-72.85-9.76-80.89-12.76z" fill="#232323"/><path d="M639.58 322.82a247.84 247.84 0 0 1-28.51-1.62C583.84 318 562 310.49 555.3 302a3 3 0 1 1 4.73-3.69c6.46 8.27 31.34 14.59 51.73 16.95 17.85 2.07 53.3 3.92 90.19-7a3 3 0 1 1 1.7 5.75c-23.19 6.84-45.81 8.81-64.07 8.81zM791.1 560.5C759 582 719 617.53 724.68 633.84s93.18 50.55 295.71-165c0-.01-60.9-21.06-229.29 91.66z" fill="#232323"/><path d="M1030.52 473.61S838.63 267.8 760.12 277.68c-79.37 10-29.54 211.34 48.22 332.23 50.37 78.31 178.58 153.47 291.76 105.84 113.98-118.24-69.58-242.14-69.58-242.14z" fill="#fff"/><path d="M1025.3 733.63q-5.77 0-11.61-.32c-27.85-1.52-56.18-8.42-84.21-20.5-50.69-21.81-96.92-59.71-123.66-101.27-61.65-95.84-109.1-249.06-80.33-310.65 7.21-15.43 18.73-24.23 34.25-26.19 33.44-4.21 89.62 27.75 167 95 55.22 48 102.08 97.72 105.76 101.64a353.16 353.16 0 0 1 50.12 43.38c42.73 44.72 54.68 82.39 57.18 106.11 3.66 34.75-9 67.39-37.53 97a3.07 3.07 0 0 1-1 .68 194.55 194.55 0 0 1-75.97 15.12zm-259.36-453.3a42 42 0 0 0-5.45.33c-13.34 1.67-23.29 9.33-29.56 22.76-12.48 26.71-10.19 76.72 6.28 137.21 15.93 58.55 42.78 119.66 73.66 167.66 26.12 40.6 71.34 77.62 121 99 27.37 11.8 55 18.53 82.15 20a190.37 190.37 0 0 0 84.36-14.1c27-28.17 38.9-59 35.45-91.77-2.39-22.77-14-59-55.46-102.51a343 343 0 0 0-49.52-42.84 3.1 3.1 0 0 1-.51-.44c-1.88-1.97-183.08-195.3-262.4-195.3z" fill="#232323"/><path d="M1030.52 473.61c15.54-14.47 62.42-43.91 132.3-125.7 13.48-15.78 149.53 89.76 139.32 112.6-38 85-89.4 165.35-157.47 227-96.25 87.2-239.07 33.69-305.59-40" fill="#fff"/><path d="M1025.57 735.64q-5.14 0-10.35-.27C951 732.16 881 698.47 836.86 649.56a3 3 0 0 1 4.45-4c43.15 47.79 111.53 80.7 174.21 83.84 48.64 2.45 92.62-12.8 127.14-44.08 62.13-56.29 114.87-132.33 156.74-226 1.87-4.18-4.72-17.4-29.43-40.9a471 471 0 0 0-67.75-53c-26.84-17-35.89-17-37.12-15.53-54.49 63.78-95.64 96.3-117.74 113.78-6.38 5-11.42 9-14.79 12.17a3 3 0 0 1-4.09-4.39c3.55-3.31 8.67-7.36 15.16-12.49 21.94-17.35 62.79-49.64 116.9-113 1.93-2.25 7.78-9.1 44.89 14.35a479.43 479.43 0 0 1 68.68 53.69c24.25 23.07 34.6 39.12 30.77 47.7-42.22 94.44-95.44 171.15-158.19 228-33.26 30.18-74.96 45.93-121.12 45.94z" fill="#232323"/><path d="m1030.83 473.82-.31-.21s-1.35-1.45-3.87-4.09a179.3 179.3 0 0 0-20.08 19.71c-14.25 16.25-23.37 32.16-27.1 47.3a3 3 0 1 0 5.82 1.44c8.37-34 44.94-63.64 45.31-63.93z" fill="#232323"/><path d="M1302.14 460.51c51.47-115 48.42-184.18 53.87-218.43s-6.49-32.74-14.87-17.31c-2.75 5-9.72 15.42-9.72 15.42s1.76-5.62 6.3-36.71c6.55-54.88-13.51-25.22-13.51-25.22 4.67-54.8-19.66-15.35-19.66-15.35 2.26-29.27-7.35-26.29-21.53-5.18s-43 80.57-43 80.57c-10.67-35.15-21.66-8.92-27.46 16s-14.91 55.63-49.75 93.62" fill="#fff"/><path d="M1302.14 463.51a3 3 0 0 1-2.74-4.22c41.5-92.71 47.45-156.2 51-194.13.85-9.1 1.59-17 2.64-23.55 3-18.56.27-23.88-.9-24.28-.77-.26-4.33 1.41-8.38 8.87-2.78 5.12-9.57 15.24-9.86 15.67a3 3 0 0 1-5.35-2.57c.07-.22 1.8-6.21 6.19-36.26 3.3-27.67-.77-29.76-.81-29.78-1-.24-4.66 2.86-7.25 6.68a3 3 0 0 1-5.47-1.93c2.06-24.17-2-25.8-2-25.82-1.89-.63-7.86 5.47-12.08 12.3a3 3 0 0 1-5.54-1.81c1.29-16.71-1.71-18.23-1.74-18.25s-3.91-.51-14.3 15c-14 20.82-42.5 79.61-42.79 80.2a3 3 0 0 1-2.93 1.69 3 3 0 0 1-2.64-2.12c-4.52-14.87-8-14.92-8.2-14.91-2.56.09-8.26 8.34-13.47 30.71-6 25.9-15.39 56.73-50.46 95a3 3 0 0 1-4.42-4.06c34.08-37.16 43.18-67.11 49-92.27 5.4-23.21 11.83-35.1 19.12-35.34 4.53-.13 8.32 3.77 11.73 12.24 7.9-16 28.47-57.22 40-74.45 9.17-13.65 15.92-19.14 21.26-17.29 3.87 1.34 5.83 5.93 6.07 14.54 3.8-4.35 8.72-8.29 13.2-6.81 5 1.66 7.17 9 6.67 23.36 2.49-2 5.42-3.29 8.3-2.22 7.58 2.82 6.62 19.88 4.67 36.19-1.34 9.21-2.45 16.21-3.34 21.5.43-.72.82-1.4 1.14-2 4.88-9 10.7-13.34 15.58-11.68 6.17 2.1 7.82 12.5 4.89 30.9-1 6.41-1.74 14.18-2.59 23.17-3.59 38.3-9.6 102.41-51.5 196a3 3 0 0 1-2.7 1.73z" fill="#232323"/><path d="M1319.35 265.93a2.84 2.84 0 0 1-1.06-.2 3 3 0 0 1-1.74-3.87 130.68 130.68 0 0 1 12.37-23.31 3 3 0 1 1 5 3.29 126.38 126.38 0 0 0-11.76 22.16 3 3 0 0 1-2.81 1.93zM1289.74 255a2.85 2.85 0 0 1-1-.17 3 3 0 0 1-1.86-3.81c6.82-19.75 23.14-57.64 34.84-74.48a3 3 0 0 1 4.93 3.42c-11.39 16.4-27.39 53.59-34.09 73a3 3 0 0 1-2.82 2.04zm-26.94-10.25a3 3 0 0 1-2.8-4.09c6.1-15.66 26.44-55.9 42-79.41a3 3 0 1 1 5 3.32c-15.15 22.81-35.59 63.21-41.46 78.27a3 3 0 0 1-2.74 1.91zm-39.56 29.88a3 3 0 0 1-2.61-4.49c4.11-7.22 9.75-18.78 16.7-33.15a3 3 0 0 1 5.4 2.61c-7 14.47-12.68 26.13-16.88 33.51a3 3 0 0 1-2.61 1.52zm-220.5 369.17c-30.87 0-67.33-17.9-108.55-53.33a504 504 0 0 1-57.45-58.66 3 3 0 0 1 4.68-3.76c.94 1.18 94.9 117.18 168.73 109.37 83.78-8.87 141.67-128.27 192.75-233.62 16.06-33.13 31.23-64.43 46.4-90.62a3 3 0 1 1 5.19 3c-15 26-30.18 57.21-46.19 90.24-51.76 106.75-110.43 227.74-197.52 237a79 79 0 0 1-8.04.38z" fill="#232323"/><circle cx="1251.9" cy="314.68" fill="#fff" r="11.87"/><path d="M1251.9 329.54a14.87 14.87 0 1 1 14.86-14.86 14.88 14.88 0 0 1-14.86 14.86zm0-23.73a8.87 8.87 0 1 0 8.86 8.87 8.88 8.88 0 0 0-8.86-8.87z" fill="#232323"/><circle cx="1010.46" cy="640.4" fill="#fff" r="11.87"/><path d="M1010.46 655.27a14.87 14.87 0 1 1 14.87-14.87 14.88 14.88 0 0 1-14.87 14.87zm0-23.73a8.87 8.87 0 1 0 8.87 8.86 8.86 8.86 0 0 0-8.87-8.86z" fill="#232323"/><path d="M1016.91 462.82c-47.63-6.24-157.1 49.18-228.2 99.51-29.4 20.81-55.6 44.56-61.38 60.58-1.33 3.68-1.58 7-.55 9.69 0-.09-.31-.66-.77-1.67-3.16-6.95-15.32-34.83-26.11-75.88-14-53.41-25.79-129.09-12.45-209.95 3.55-21.45 12.94-40.74 27.94-54.06 47.77-42.48 140.94-26.04 301.52 171.78z" fill="#fff"/><path d="M726.78 635.6a3 3 0 0 1-2.74-1.77v-.09c-.11-.23-.35-.74-.68-1.49a.36.36 0 0 1 0-.09c-3.45-7.55-15.52-35.39-26.29-76.36-13.28-50.46-26.22-128.07-12.51-211.2 3.82-23.11 13.82-42.41 28.91-55.82 16.78-14.91 37.34-21.49 61.09-19.56 29.5 2.4 63.71 18.06 101.7 46.56 42.82 32.11 91 81 143.06 145.15a3 3 0 0 1-2.72 4.86c-45-5.9-152.34 46.8-226.08 99-32.75 23.18-55.29 45.29-60.29 59.15-1.12 3.08-1.3 5.64-.56 7.61a3 3 0 0 1-1.67 3.83 2.87 2.87 0 0 1-1.22.22zm39.78-360.71c-18.93 0-35.45 6.17-49.19 18.38-14 12.48-23.38 30.57-27 52.31-13.54 82.08-.74 158.79 12.39 208.69a523.86 523.86 0 0 0 22.12 66.57c3.28-8 15.65-28.11 62.06-61a804.16 804.16 0 0 1 123.39-71.25c30.47-14 71.37-29.76 99.85-29.29-50.12-61.18-96.4-107.84-137.63-138.76-37.07-27.81-70.24-43.07-98.59-45.38q-3.73-.27-7.4-.27z" fill="#232323"/><path d="M580.78 565.53a10 10 0 0 1-9.65-7.4 884.67 884.67 0 0 1-23.6-120.84c-14 30.3-26.6 66.9-38.09 110.88a10 10 0 0 1-19.35-5.06c16-61.14 34.11-108.71 55.45-145.43a10 10 0 0 1 18.62 4.32c3.34 46.53 12.92 101.54 26.28 150.92a10 10 0 0 1-7.05 12.27 10.24 10.24 0 0 1-2.61.34z" fill="#00676c"/><path d="M555.63 511.62c-16.3 0-32.19-3.62-45-10.42a10 10 0 1 1 9.39-17.65c12.57 6.68 29.29 9.4 45.88 7.48a10 10 0 1 1 2.31 19.86 109.11 109.11 0 0 1-12.58.73zm78.3 60.53a10 10 0 0 1-9.76-7.87c-9.89-45.37-12.82-99.69-8.47-157.09a10 10 0 0 1 19.95 1.52c-4.21 55.48-1.42 107.81 8.06 151.31a10 10 0 0 1-7.64 11.9 10.46 10.46 0 0 1-2.14.23z" fill="#00676c"/></svg></g><g transform="translate(755.0 289.0) rotate(0.0 87.0 104.5) scale(1.0350365831895783 1.0254145814934748)"><svg width="168.11" height="203.82" viewBox="0 0 168.11 203.82"><path d="M82.7 3.29 5 37.83a3.34 3.34 0 0 0-2 3.05v51.87c0 70.51 58 103.44 81.06 108.07 23.06-4.63 81.05-37.56 81.05-108.07V40.88a3.34 3.34 0 0 0-2-3.05L85.41 3.29a3.28 3.28 0 0 0-2.71 0z" fill="#fff"/><path d="M84.06 203.82a3.05 3.05 0 0 1-.6-.06C57.32 198.51 0 163.27 0 92.75V40.88a6.34 6.34 0 0 1 3.77-5.79L81.48.55a6.33 6.33 0 0 1 5.15 0l77.72 34.54a6.34 6.34 0 0 1 3.76 5.79v51.87c0 70.52-57.32 105.76-83.46 111a3 3 0 0 1-.59.07zM84.06 6a.32.32 0 0 0-.14 0L6.2 40.57a.34.34 0 0 0-.2.31v51.87C6 130.1 22.87 155 37 169.39c15.83 16 34.89 25.74 47.05 28.37 12.15-2.63 31.21-12.33 47-28.37 14.14-14.35 31-39.29 31-76.64V40.88a.34.34 0 0 0-.2-.31L84.19 6a.31.31 0 0 0-.13 0z" fill="#232323"/><path d="M83 25 21.24 53.74a2.66 2.66 0 0 0-1.58 2.43v41.2c0 56 46.07 82.18 64.4 85.86 18.32-3.68 64.39-29.84 64.39-85.86v-41.2a2.66 2.66 0 0 0-1.58-2.43L85.13 25A2.68 2.68 0 0 0 83 25z" fill="#d9c6f4"/></svg></g><g transform="translate(1990.0 1653.0) rotate(0.0 70.5 93.5) scale(1.011115095016135 1.0051601806063213)"><svg width="139.45" height="186.04" viewBox="0 0 139.45 186.04"><path d="M110.87 42.42a51.11 51.11 0 0 0-7.05-24.3C99 10.43 89.72 1.21 72.23.12V0h-5.49v.09C49.28 1.21 40 10.43 35.18 18.12a51.23 51.23 0 0 0-7 24V72.5l14.2-1.26V42.33a36.27 36.27 0 0 1 4.87-16.73c4.59-7.38 12.06-11.21 22.24-11.4 10.17.19 17.67 4 22.24 11.4a37 37 0 0 1 5 17.25v29.5l14.19 4.1V42.42z" fill="#232323"/><path d="M69.72 183A66.73 66.73 0 0 1 3 116.32V77.09a22.77 22.77 0 0 1 22.76-22.77h87.92a22.78 22.78 0 0 1 22.77 22.77v39.23A66.74 66.74 0 0 1 69.72 183z" fill="#fff"/><g fill="#232323"><path d="M69.72 186A69.8 69.8 0 0 1 0 116.32V77.09a25.8 25.8 0 0 1 25.76-25.77h87.92a25.8 25.8 0 0 1 25.77 25.77v39.23A69.81 69.81 0 0 1 69.72 186zm-44-128.72A19.79 19.79 0 0 0 6 77.09v39.23a63.73 63.73 0 0 0 127.45 0V77.09a19.79 19.79 0 0 0-19.77-19.77z"/><path d="M85.05 98.76a15.37 15.37 0 1 0-20.44 14.5l-9.27 31a2.48 2.48 0 0 0 2.36 3.19h24a2.48 2.48 0 0 0 2.36-3.19l-9.27-31a15.36 15.36 0 0 0 10.26-14.5z"/></g></svg></g><g transform="translate(1887.0 1209.0) rotate(0.0 20.0 21.0) scale(0.6081152986606261 0.6081227828856874)"><svg width="65.777" height="69.065" viewBox="0 0 65.777 69.065"><ellipse cx="32.889" cy="34.533" fill="#232323" rx="32.874" ry="34.542" transform="matrix(.99636168 -.08522564 .08522564 .99636168 -2.824 2.929)"/></svg></g><g transform="translate(2001.0 1132.0) rotate(0.0 15.5 16.0) scale(0.47128935646198516 0.4633316441033809)"><svg width="65.777" height="69.065" viewBox="0 0 65.777 69.065"><ellipse cx="32.889" cy="34.533" fill="#232323" rx="32.874" ry="34.542" transform="matrix(.99636168 -.08522564 .08522564 .99636168 -2.824 2.929)"/></svg></g><g transform="translate(499.0 569.0) rotate(0.0 131.5 131.5) scale(0.30598936367010393 0.30598936367010393)"><svg width="859.507" height="859.507" viewBox="0 0 859.507 859.507"><g fill="#232323"><path d="M429.753 859.508c-58.012 0-114.294-11.364-167.282-33.776-51.176-21.646-97.135-52.631-136.599-92.096-39.465-39.465-70.45-85.424-92.096-136.6C11.364 544.048 0 487.765 0 429.754S11.364 315.46 33.776 262.471c21.646-51.176 52.631-97.135 92.096-136.6 39.464-39.465 85.423-70.45 136.599-92.096C315.459 11.364 371.742 0 429.753 0c58.012 0 114.294 11.364 167.283 33.776 51.176 21.646 97.135 52.631 136.599 92.096 39.465 39.465 70.45 85.423 92.096 136.6 22.412 52.988 33.776 109.271 33.776 167.282s-11.364 114.294-33.776 167.282c-21.646 51.177-52.631 97.135-92.096 136.6-39.464 39.465-85.423 70.45-136.599 92.096-52.989 22.411-109.27 33.776-167.283 33.776zm0-839.508c-55.321 0-108.981 10.832-159.491 32.196-48.792 20.638-92.614 50.184-130.248 87.818S72.833 221.47 52.196 270.262C30.833 320.772 20 374.433 20 429.754s10.833 108.981 32.196 159.491c20.637 48.792 50.184 92.614 87.818 130.248 37.634 37.635 81.456 67.181 130.248 87.818 50.51 21.364 104.17 32.196 159.491 32.196s108.981-10.832 159.492-32.196c48.792-20.638 92.614-50.184 130.248-87.818s67.181-81.456 87.818-130.248c21.364-50.51 32.196-104.171 32.196-159.491s-10.833-108.981-32.196-159.491c-20.637-48.792-50.184-92.614-87.818-130.248-37.634-37.635-81.456-67.181-130.248-87.818C538.735 30.832 485.074 20 429.753 20z"/><path d="M429.753 859.508c-60.045 0-115.927-45.625-157.349-128.471-40.321-80.644-62.527-187.641-62.527-301.283s22.206-220.64 62.527-301.283C313.827 45.625 369.708 0 429.753 0c60.046 0 115.927 45.625 157.35 128.471 40.321 80.644 62.527 187.641 62.527 301.283s-22.206 220.64-62.527 301.283c-41.423 82.846-97.304 128.471-157.35 128.471zm0-839.508c-25.903 0-51.216 10.303-75.235 30.621-23.952 20.262-45.561 49.463-64.226 86.794-38.959 77.92-60.416 181.741-60.416 292.339s21.456 214.419 60.416 292.339c18.666 37.331 40.274 66.532 64.226 86.794 24.019 20.318 49.332 30.621 75.235 30.621s51.216-10.303 75.235-30.621c23.952-20.262 45.561-49.463 64.226-86.794 38.959-77.92 60.416-181.741 60.416-292.339s-21.456-214.419-60.416-292.339c-18.666-37.331-40.274-66.532-64.226-86.794C480.969 30.303 455.656 20 429.753 20z"/><path d="M105.328 706.815a9.995 9.995 0 0 1-8.533-4.771c-2.888-4.708-1.414-10.865 3.293-13.754 81.228-49.845 201.705-78.432 330.539-78.432 124.61 0 244.367 27.9 328.563 76.548 4.782 2.763 6.419 8.879 3.656 13.661-2.763 4.781-8.877 6.422-13.662 3.655-81.245-46.941-197.354-73.864-318.557-73.864-125.246 0-241.91 27.511-320.079 75.479a9.94 9.94 0 0 1-5.22 1.478zm323.551-457.167c-124.608 0-244.365-27.9-328.563-76.547-4.782-2.764-6.419-8.88-3.656-13.662 2.762-4.782 8.88-6.419 13.661-3.656 81.248 46.942 197.357 73.865 318.558 73.865 125.245 0 241.909-27.511 320.079-75.479 4.708-2.889 10.865-1.413 13.753 3.293 2.888 4.708 1.414 10.865-3.293 13.754-81.229 49.845-201.706 78.432-330.539 78.432zm420.628 190.106H10c-5.523 0-10-4.478-10-10s4.477-10 10-10h839.507c5.523 0 10 4.478 10 10s-4.477 10-10 10z"/><path d="M429.753 859.508c-5.523 0-10-4.478-10-10V10c0-5.522 4.477-10 10-10s10 4.478 10 10v839.508c0 5.522-4.477 10-10 10z"/></g></svg></g></svg>